<?xml version="1.0" standalone="no"?>
<!DOCTYPE svg PUBLIC "-//W3C//DTD SVG 20010904//EN"
 "http://www.w3.org/TR/2001/REC-SVG-20010904/DTD/svg10.dtd">
<svg version="1.0" xmlns="http://www.w3.org/2000/svg"
 width="300.000000pt" height="229.000000pt" viewBox="0 0 300.000000 229.000000"
 preserveAspectRatio="xMidYMid meet">
<metadata>
Created by potrace 1.10, written by Peter Selinger 2001-2011
</metadata>
<g transform="translate(0.000000,229.000000) scale(0.100000,-0.100000)"
fill="#000000" stroke="none">
<path d="M2055 2170 c-82 -11 -163 -43 -265 -105 -148 -90 -205 -97 -329 -40
-107 48 -166 58 -296 53 -165 -8 -276 -56 -430 -188 -33 -29 -94 -78 -136
-110 -89 -69 -125 -108 -173 -189 -19 -34 -73 -98 -120 -144 -113 -111 -143
-176 -215 -465 -49 -197 -68 -335 -78 -562 -6 -134 -5 -144 10 -131 16 12 17
8 17 -52 0 -56 -3 -68 -20 -77 -11 -6 -20 -20 -20 -30 0 -20 11 -20 806 -20
l806 0 -6 26 c-4 15 -4 50 -1 78 l7 51 131 68 c123 63 156 75 169 62 2 -3 -3
-65 -13 -138 -10 -72 -18 -135 -19 -139 0 -5 8 -8 19 -8 16 0 20 13 30 88 6
49 11 110 11 136 0 55 -4 55 116 0 50 -22 90 -34 120 -34 43 0 44 -1 37 -27
-4 -16 -7 -50 -7 -78 -2 -93 -38 -85 405 -85 l392 0 -7 42 c-17 104 -54 153
-233 305 -68 57 -123 110 -123 116 0 17 10 29 54 61 45 34 75 95 76 151 0 44
-14 70 -68 127 -20 21 -34 39 -31 42 2 2 27 15 55 29 52 26 97 71 109 106 4
12 -6 41 -25 77 -16 31 -30 68 -30 81 0 35 27 82 80 138 25 28 64 77 86 109
38 58 39 62 39 145 0 103 -18 143 -93 213 -64 60 -146 101 -276 137 -87 25
-113 37 -143 66 -53 52 -164 103 -248 115 -78 11 -85 11 -170 0z m267 -69 c31
-12 76 -39 100 -60 l43 -38 -155 -5 c-205 -7 -320 -36 -547 -139 -23 -10 -51
-19 -63 -19 -26 0 -150 86 -150 104 0 3 24 6 54 6 67 0 115 17 194 68 142 92
213 113 362 108 78 -2 120 -9 162 -25z m-997 -75 c96 -25 195 -80 195 -107 0
-4 -21 0 -47 9 -33 10 -83 15 -158 14 -186 -1 -343 -56 -424 -148 -38 -43 -52
-74 -33 -74 4 0 19 16 35 35 95 119 328 184 537 149 92 -15 220 -63 220 -82 0
-6 -14 -7 -37 -1 -61 14 -185 10 -244 -7 -116 -35 -266 -125 -421 -255 -118
-99 -170 -151 -161 -160 9 -9 26 4 263 191 126 99 226 158 320 187 62 19 245
24 295 8 25 -7 13 -10 -70 -16 -164 -10 -253 -52 -460 -215 -65 -51 -136 -90
-292 -159 -35 -15 -63 -31 -63 -36 0 -14 85 -59 111 -59 l24 1 -24 19 c-13 11
-29 20 -37 20 -34 0 -6 20 94 65 122 56 174 88 287 179 44 36 107 79 141 95
74 37 210 71 285 71 120 0 268 -45 309 -94 16 -20 12 -20 -36 1 -53 22 -381
25 -434 4 -49 -21 -132 -77 -225 -155 -88 -74 -202 -142 -252 -152 -43 -8 -42
-17 5 -31 20 -6 63 -22 95 -36 l58 -24 -123 -6 c-155 -7 -273 -42 -320 -93
-47 -53 -83 -246 -67 -360 10 -72 56 -184 91 -221 l21 -22 -34 -28 c-19 -15
-47 -43 -63 -61 -16 -17 -38 -32 -49 -32 -33 0 -196 70 -281 120 -105 63 -244
175 -252 204 -11 45 78 408 126 509 28 59 103 158 140 184 16 11 18 5 23 -68
5 -75 11 -99 21 -88 2 2 9 55 14 116 9 111 10 114 55 182 44 66 74 93 335 304
59 47 154 95 235 118 75 21 203 24 272 5z m1290 -81 c72 -19 195 -74 195 -87
0 -5 -8 -7 -17 -4 -107 32 -310 49 -454 38 -137 -12 -236 -42 -361 -113 l-87
-49 -78 34 c-43 19 -79 38 -80 43 -6 19 284 125 407 148 101 19 390 14 475
-10z m71 -105 c117 -21 187 -42 218 -65 33 -25 13 -25 -55 0 -124 45 -281 56
-402 29 -88 -20 -134 -43 -280 -139 -63 -41 -121 -75 -129 -75 -16 0 -43 63
-29 68 5 2 54 34 110 72 55 38 114 76 130 85 94 48 258 58 437 25z m-466 -4
c0 -2 -26 -19 -57 -39 -32 -19 -84 -55 -117 -80 l-58 -44 -23 21 -23 20 30 19
c105 64 248 123 248 103z m589 -76 c95 -27 128 -50 141 -100 14 -53 5 -84 -38
-121 -33 -29 -124 -76 -183 -94 -23 -7 -23 -7 -7 12 25 28 48 88 48 125 -1 84
-73 168 -159 187 -65 14 -181 -1 -227 -29 -56 -35 -100 -93 -114 -149 -23 -96
-1 -160 71 -210 l34 -23 -120 5 c-101 4 -214 23 -229 38 -3 2 2 27 9 56 7 28
11 60 8 71 -4 16 14 32 94 84 269 176 280 180 463 174 96 -3 156 -11 209 -26z
m-187 -34 c47 -20 86 -62 100 -108 10 -33 8 -48 -13 -113 l-24 -75 -55 -16
c-30 -9 -63 -18 -73 -19 -9 -2 -22 -7 -27 -10 -15 -9 -12 12 5 45 9 17 14 33
13 37 -2 4 15 7 37 5 78 -4 136 80 104 150 -17 39 -74 72 -110 64 -25 -5 -36
-1 -50 16 -11 11 -19 25 -19 30 0 13 74 9 112 -6z m-122 -45 c5 -11 10 -24 10
-30 0 -19 -32 -41 -61 -41 -37 0 -57 36 -40 69 16 28 76 30 91 2z m-130 -40
c0 -10 7 -24 15 -31 13 -11 14 -15 1 -29 -28 -33 -29 -61 -2 -101 14 -22 26
-43 26 -48 0 -4 9 -15 20 -25 27 -23 25 -37 -5 -37 -49 0 -126 103 -120 160 1
14 3 34 4 45 1 25 37 85 51 85 5 0 10 -8 10 -19z m-429 -16 c63 -32 69 -42 69
-113 0 -41 -6 -74 -16 -91 -15 -26 -90 -81 -110 -81 -5 0 -8 18 -6 39 13 135
-100 260 -233 261 -60 0 -141 -21 -179 -45 -40 -27 -77 -96 -83 -159 -6 -60
10 -138 33 -157 21 -17 17 -39 -6 -39 -65 0 -341 80 -339 98 0 4 31 22 70 41
38 19 117 73 175 120 189 154 187 153 415 147 141 -3 183 -8 210 -21z m699 5
c41 -41 12 -120 -45 -120 -14 0 -34 9 -45 20 -41 41 -12 120 45 120 14 0 34
-9 45 -20z m-943 -31 c31 -12 102 -77 119 -111 8 -16 18 -57 22 -92 l8 -63
-58 -26 c-57 -27 -103 -34 -111 -19 -3 4 -8 21 -11 37 -7 30 -6 31 31 28 40
-4 70 14 92 54 21 41 8 123 -20 123 -6 0 -17 7 -25 15 -20 19 -63 19 -91 0
-19 -14 -23 -12 -47 20 -14 18 -26 36 -26 39 0 16 68 13 117 -5z m-122 -53
c13 -19 14 -29 5 -45 -13 -25 -57 -38 -79 -24 -20 13 -26 60 -10 79 19 23 66
17 84 -10z m889 8 c19 -19 7 -49 -24 -59 -26 -8 -40 1 -40 29 0 42 36 59 64
30z m-722 -51 c33 -30 18 -109 -22 -113 -39 -5 -58 2 -68 25 -17 37 -15 62 8
85 24 24 57 26 82 3z m763 -34 c14 -43 -45 -66 -61 -24 -8 19 13 45 37 45 10
0 21 -10 24 -21z m-1035 -11 c11 -12 20 -32 20 -45 0 -13 6 -36 14 -51 17 -33
32 -122 20 -122 -32 1 -54 17 -73 56 -27 53 -36 101 -27 148 8 42 17 44 46 14z
m1420 15 c-1 -24 -127 -104 -202 -130 -74 -25 -79 -28 -50 -31 19 -2 54 4 79
12 26 9 48 14 50 12 3 -2 -3 -18 -11 -35 -18 -34 -20 -72 -7 -118 11 -38 2
-48 -76 -87 -77 -38 -158 -54 -340 -67 -124 -9 -192 -9 -290 0 -180 17 -396
64 -538 118 -71 26 -145 47 -180 50 -54 5 -95 24 -95 43 0 4 24 1 53 -7 62
-17 252 -18 340 -3 70 13 294 91 332 116 47 31 38 6 -12 -30 -46 -35 -139 -76
-168 -76 -8 0 -15 -7 -15 -16 0 -49 218 60 256 128 9 16 14 16 64 3 82 -22
252 -30 340 -15 146 23 342 80 420 121 39 20 50 23 50 12z m-1290 -53 c6 -12
8 -30 5 -41 -10 -30 -69 -23 -73 9 -7 47 47 72 68 32z m32 -105 c14 -30 -3
-55 -38 -55 -17 0 -25 7 -30 25 -13 51 46 77 68 30z m-437 -84 c9 -15 -47 -48
-126 -75 -81 -27 -274 -45 -303 -29 -51 29 122 93 279 103 61 4 118 8 127 8 9
1 19 -2 23 -7z m36 -74 c-27 -66 -33 -111 -21 -150 14 -47 71 -112 121 -138
21 -10 42 -27 47 -37 11 -20 -2 -142 -19 -174 -14 -29 -150 -168 -164 -168 -5
0 -23 14 -39 30 -47 50 -102 73 -188 78 -56 3 -88 0 -117 -12 -39 -15 -41 -15
-61 7 -30 31 -78 135 -86 185 -6 37 -4 42 12 42 25 -1 54 -23 54 -42 0 -23 31
-112 44 -123 6 -6 16 -19 22 -30 6 -10 16 -21 22 -23 6 -2 -6 35 -28 81 -45
95 -49 113 -22 102 9 -4 46 -12 82 -17 88 -14 90 -15 90 -36 0 -10 16 -42 35
-72 27 -43 34 -49 31 -28 -5 30 -22 65 -44 91 -8 9 -13 20 -10 23 3 3 46 7 94
10 111 7 181 18 230 39 57 24 34 29 -48 10 -103 -24 -281 -27 -396 -7 -89 16
-94 18 -99 44 -7 33 -9 34 -52 7 l-34 -21 6 76 c4 42 14 105 23 141 14 55 19
65 33 58 23 -12 195 -4 272 12 80 16 161 50 185 76 26 29 42 8 25 -34z m247
-29 c217 -82 406 -118 662 -125 288 -9 464 17 572 83 31 19 61 34 67 34 20 0
11 -37 -16 -64 -76 -76 -318 -126 -613 -126 -220 0 -492 42 -670 104 -40 14
-86 26 -101 26 -23 0 -35 10 -62 53 -19 28 -32 56 -30 60 8 14 79 -3 191 -45z
m-155 -90 c49 -95 68 -158 49 -158 -18 0 -96 65 -120 100 -20 29 -23 43 -18
84 5 47 21 80 35 72 4 -3 28 -47 54 -98z m140 -22 c178 -61 408 -101 632 -111
162 -7 198 -19 211 -70 8 -31 -25 -77 -68 -98 -45 -20 -82 -13 -223 45 -230
95 -247 100 -293 95 -24 -2 -51 -12 -61 -21 -10 -9 -24 -16 -32 -16 -35 0
-265 173 -253 191 7 12 6 12 87 -15z m112 -175 c122 -74 257 -133 367 -161
l107 -27 -75 -33 -76 -33 -57 27 c-31 16 -92 50 -136 77 -44 26 -96 54 -115
60 -19 7 -67 32 -106 56 -64 39 -72 48 -78 81 -3 20 -9 48 -13 61 -6 22 -1 20
53 -21 32 -24 91 -64 129 -87z m1063 77 c90 -72 114 -143 70 -207 -34 -51 -84
-71 -236 -97 -181 -31 -182 -31 -182 5 0 28 3 30 48 36 209 27 345 87 327 144
-3 11 -33 45 -66 75 -58 54 -60 56 -37 65 33 14 31 14 76 -21z m-49 -66 c35
-33 52 -56 49 -68 -5 -28 -83 -62 -189 -84 -125 -26 -161 -26 -178 2 -11 18
-11 22 2 30 22 12 57 71 57 95 0 11 -10 32 -21 47 -12 15 -20 29 -18 31 2 2
47 7 99 12 111 11 122 7 199 -65z m-670 -59 c91 -36 188 -71 216 -78 l50 -11
-49 -17 c-46 -16 -53 -16 -138 3 -92 20 -302 100 -326 124 -12 12 -10 16 14
30 16 8 38 15 48 16 10 0 94 -30 185 -67z m-422 -25 c38 -23 38 -22 18 -51
-10 -16 -15 -54 -16 -130 -1 -69 -5 -110 -12 -114 -7 -4 -73 -8 -147 -8 l-135
0 45 36 c56 45 114 108 135 149 9 17 19 63 22 101 l6 69 25 -16 c14 -9 40 -25
59 -36z m-1394 -52 c9 -23 187 -155 271 -200 45 -24 120 -59 168 -77 l88 -32
-23 -31 c-12 -17 -31 -49 -42 -70 -11 -22 -45 -66 -75 -99 l-55 -58 -193 -2
-192 -2 0 120 c0 109 11 277 26 413 5 51 16 66 27 38z m1607 -64 c140 -85 140
-86 140 -100 0 -11 -11 -12 -51 -7 -41 6 -50 4 -47 -6 3 -8 24 -17 47 -22 35
-7 42 -12 39 -30 -2 -14 -14 -24 -35 -31 -18 -5 -33 -16 -33 -24 0 -14 13 -13
53 3 9 4 17 3 17 -3 0 -14 -230 -142 -256 -142 -43 0 -49 23 -52 202 -5 212
-3 218 46 218 28 0 61 -14 132 -58z m548 -17 c7 -94 -9 -275 -25 -290 -25 -25
-90 -18 -172 19 -42 19 -88 38 -103 41 -16 4 -28 14 -28 22 0 12 9 14 46 8 36
-5 45 -4 42 7 -3 7 -20 15 -39 18 -28 4 -35 10 -37 33 -3 22 1 27 18 27 29 0
62 19 54 31 -3 6 -22 8 -45 4 -97 -17 -11 39 155 101 120 44 130 43 134 -21z
m287 -45 c-15 -24 -182 -79 -241 -80 -17 0 -22 6 -20 24 1 23 6 25 66 31 36 4
88 13 115 20 63 16 88 18 80 5z m55 -4 c0 -8 3 -22 7 -31 5 -14 2 -16 -18 -10
-22 7 -21 5 6 -16 262 -204 313 -252 340 -316 31 -73 55 -68 -335 -68 l-351 0
-6 23 c-8 32 5 144 17 156 6 6 10 18 10 27 0 9 33 45 73 81 52 46 92 71 144
92 40 15 72 31 71 34 -1 4 2 15 6 25 10 20 36 23 36 3z m-1555 -27 c59 -15
128 -83 145 -144 17 -61 6 -122 -39 -208 -28 -56 -41 -71 -56 -69 -44 5 -373
4 -392 -2 -16 -5 -30 3 -59 37 -67 77 -72 91 -44 142 32 59 126 168 175 204
22 16 56 34 75 39 48 14 142 14 195 1z m873 -73 c-2 -40 -7 -52 -22 -54 -24
-5 -36 14 -36 60 0 45 25 75 47 57 9 -9 13 -28 11 -63z m438 -9 c-10 -7 -32
-23 -47 -35 l-29 -24 0 29 c0 39 6 43 54 42 36 0 39 -2 22 -12z m-856 -52 c0
-26 0 -26 -24 -8 -16 12 -20 20 -12 25 22 15 36 8 36 -17z m-55 -15 c50 -29
65 -47 65 -79 0 -27 35 -71 58 -71 10 0 13 -7 8 -22 -3 -13 -6 -37 -6 -55 l0
-32 -205 -3 c-113 -2 -205 1 -205 5 0 4 6 18 14 30 31 48 58 150 51 194 -3 24
-3 48 1 54 13 21 173 5 219 -21z m-870 -207 c52 -55 51 -58 -31 -58 -41 0 -74
1 -74 2 0 5 72 83 76 83 2 0 15 -12 29 -27z"/>
<path d="M887 1056 c35 -16 48 -37 59 -101 6 -36 8 -38 14 -15 15 55 -21 114
-75 125 l-30 6 32 -15z"/>
<path d="M762 1035 c-14 -31 -16 -135 -3 -135 7 0 21 144 15 158 0 1 -6 -9
-12 -23z"/>
<path d="M949 893 c-3 -25 4 -79 12 -87 6 -7 9 -7 10 0 4 44 8 57 20 65 8 5
61 9 119 8 148 -2 180 0 155 11 -25 11 -315 13 -316 3z"/>
<path d="M1984 276 c-11 -29 0 -51 26 -51 21 0 25 5 25 30 0 24 -5 31 -23 33
-13 2 -24 -3 -28 -12z"/>
<path d="M1977 154 c-4 -4 -7 -16 -7 -26 0 -13 8 -18 31 -18 26 0 30 3 27 23
-3 22 -36 36 -51 21z"/>
</g>
</svg>
