<?xml version="1.0" standalone="no"?>
<!DOCTYPE svg PUBLIC "-//W3C//DTD SVG 20010904//EN"
 "http://www.w3.org/TR/2001/REC-SVG-20010904/DTD/svg10.dtd">
<svg version="1.0" xmlns="http://www.w3.org/2000/svg"
 width="300.000000pt" height="300.000000pt" viewBox="0 0 300.000000 300.000000"
 preserveAspectRatio="xMidYMid meet">
<metadata>
Created by potrace 1.10, written by Peter Selinger 2001-2011
</metadata>
<g transform="translate(0.000000,300.000000) scale(0.100000,-0.100000)"
fill="#000000" stroke="none">
<path d="M2090 1960 c-6 -11 -16 -17 -25 -14 -8 4 -12 10 -9 15 8 14 -62 10
-74 -4 -7 -8 -38 -14 -78 -15 -38 -2 -73 -7 -78 -11 -6 -5 -25 -12 -43 -15
-17 -4 -37 -14 -44 -22 -6 -8 -20 -14 -30 -14 -11 0 -19 -3 -19 -8 0 -11 -88
-50 -151 -67 -58 -15 -101 -16 -93 -3 6 10 -28 26 -43 21 -7 -3 -13 2 -13 11
0 9 -12 18 -27 21 -16 4 -48 11 -73 18 -25 7 -62 10 -82 9 -29 -3 -38 0 -38
12 0 20 -38 21 -64 1 -11 -8 -39 -15 -62 -15 -24 0 -45 -4 -48 -9 -3 -4 -21
-11 -41 -14 -19 -3 -50 -17 -68 -31 -19 -14 -37 -26 -42 -26 -4 0 -24 -13 -45
-30 -21 -16 -42 -30 -46 -30 -5 -1 -25 -14 -44 -30 -19 -17 -39 -30 -46 -30
-22 0 -199 -189 -207 -223 -5 -17 -12 -34 -16 -37 -4 -3 -24 -26 -45 -52 -21
-27 -44 -48 -51 -48 -27 0 -95 -86 -122 -153 -14 -37 -30 -70 -35 -73 -4 -3
-8 -21 -8 -41 0 -21 -6 -41 -16 -48 -10 -7 -17 -27 -18 -51 0 -21 -6 -43 -13
-49 -12 -9 -16 -95 -12 -233 3 -82 24 -59 26 29 1 41 5 99 9 129 4 30 7 59 5
64 -1 4 2 13 7 20 6 6 13 27 17 46 4 19 11 40 15 45 4 6 11 26 15 45 4 19 13
46 20 60 7 14 21 43 31 65 9 22 22 45 28 52 27 30 36 43 36 48 0 13 26 30 50
33 34 5 72 43 73 76 1 14 8 28 14 31 7 2 13 10 13 16 0 7 21 37 48 68 26 30
46 59 45 63 -2 4 6 9 16 13 10 3 35 21 57 40 21 19 44 35 50 35 6 0 20 11 31
24 11 13 39 34 62 47 22 12 41 26 41 31 0 4 7 8 15 8 8 0 23 9 32 20 10 11 24
20 32 20 8 0 22 7 31 15 9 8 36 16 61 16 24 1 55 8 67 16 29 18 147 12 212 -9
8 -3 38 -11 65 -17 28 -7 67 -26 88 -42 20 -16 37 -25 37 -19 0 6 23 10 55 10
54 0 123 23 138 48 4 6 19 12 31 12 13 0 26 7 30 15 3 8 15 15 26 15 11 0 20
4 20 9 0 12 31 22 79 26 22 1 43 5 47 8 11 6 115 28 164 34 62 7 80 4 104 -22
19 -20 33 -25 74 -25 50 0 52 -1 72 -41 22 -43 43 -47 48 -10 5 34 -71 101
-115 101 -22 0 -32 -4 -27 -11 4 -7 -2 -9 -17 -7 -14 2 -29 14 -37 31 -16 33
-56 37 -72 7z"/>
<path d="M2421 1814 c-12 -9 -33 -14 -47 -11 -13 2 -27 1 -29 -3 -11 -18 26
-28 100 -27 70 1 88 -3 140 -28 33 -17 63 -30 67 -30 13 0 49 -45 43 -55 -6
-9 -12 -8 -50 6 -11 4 -42 9 -69 11 -35 4 -46 2 -41 -7 12 -19 87 -50 123 -50
39 0 74 -20 127 -75 36 -37 40 -46 37 -83 -2 -23 -8 -42 -13 -42 -12 0 -125
-114 -139 -140 -7 -13 -5 -21 5 -30 11 -9 15 -9 15 -1 0 6 -5 11 -12 11 -6 0
-8 3 -5 6 4 4 13 2 20 -5 11 -8 22 -3 50 24 21 20 44 50 53 68 9 18 27 44 40
59 25 30 24 63 -2 102 -8 13 -12 31 -8 40 7 19 -21 66 -40 66 -8 0 -21 16 -30
35 -9 19 -23 35 -31 35 -8 0 -19 9 -25 20 -6 11 -20 20 -30 20 -11 0 -20 6
-20 13 0 50 -179 105 -229 71z"/>
<path d="M1150 1760 c-14 -3 -20 -8 -15 -11 14 -7 66 -4 94 5 13 5 21 4 18 0
-3 -5 16 -10 41 -10 26 -1 54 -5 62 -8 8 -3 22 -1 30 4 13 9 13 11 0 20 -16
11 -186 11 -230 0z"/>
<path d="M1500 1716 c0 -23 54 -45 65 -26 6 9 -8 15 -29 11 -4 -1 -14 4 -22
10 -8 6 -14 8 -14 5z"/>
<path d="M930 1673 c-18 -7 -39 -34 -39 -48 0 -5 6 -2 13 7 7 10 16 15 19 11
4 -3 7 -1 7 6 0 7 4 10 9 7 4 -3 17 1 27 9 19 14 19 14 -1 14 -11 0 -27 -3
-35 -6z"/>
<path d="M852 1604 c-12 -8 -20 -19 -17 -24 3 -4 -1 -11 -7 -13 -10 -4 -10 -6
0 -6 7 -1 20 6 28 14 9 8 12 15 8 15 -3 0 -1 7 6 15 16 19 10 19 -18 -1z"/>
<path d="M2201 1613 c-14 -6 -37 -23 -79 -60 -14 -13 -33 -23 -43 -23 -9 0
-19 -4 -21 -8 -6 -16 -75 -62 -92 -62 -9 0 -31 16 -49 35 -20 21 -45 36 -66
40 -19 3 -39 9 -45 13 -17 11 -86 11 -86 0 0 -6 -7 -7 -16 -4 -10 4 -13 2 -8
-6 5 -8 2 -9 -9 -5 -11 4 -17 1 -17 -7 0 -16 32 -23 114 -25 32 -1 68 -7 80
-13 11 -6 28 -14 36 -18 9 -4 16 -24 18 -51 4 -70 9 -74 44 -34 31 36 142 115
161 115 5 0 26 15 47 33 20 17 47 40 59 50 32 26 13 46 -28 30z"/>
<path d="M2339 1603 c-35 -24 -108 -104 -125 -137 -28 -57 -28 -100 -1 -153
14 -26 28 -56 31 -65 4 -14 17 -18 56 -18 30 0 50 4 50 11 0 8 4 8 14 0 11 -9
16 -9 22 0 5 8 3 9 -6 4 -9 -5 -11 -4 -6 3 5 9 13 9 27 2 14 -8 19 -7 19 1 0
9 3 9 14 0 11 -9 17 -8 28 3 8 7 23 16 34 19 12 3 6 5 -14 6 -31 1 -33 3 -30
33 2 24 9 34 23 36 54 8 67 15 94 52 27 37 29 38 34 18 9 -41 0 -112 -14 -116
-10 -3 -10 0 1 8 16 12 14 12 -37 -10 -35 -15 -43 -27 -18 -27 8 0 15 4 15 9
0 4 5 8 11 8 5 0 7 -4 4 -10 -12 -19 11 -10 44 18 31 25 33 31 34 97 2 59 -2
77 -22 110 -36 58 -63 85 -88 85 -12 0 -24 6 -27 13 -5 10 -7 10 -12 0 -3 -7
-15 -13 -27 -14 -15 0 -10 -5 17 -15 42 -15 66 -32 66 -45 0 -5 -12 -4 -27 2
-14 5 -38 7 -53 4 -34 -8 -59 17 -40 40 10 12 10 15 -4 15 -9 0 -18 -1 -20 -2
-2 -2 -13 5 -23 14 -18 16 -21 17 -44 1z m51 -61 c18 -14 21 -25 17 -44 -7
-28 -29 -37 -67 -28 -35 8 -39 48 -8 72 29 22 31 22 58 0z m149 -68 c21 -27
20 -36 -12 -76 -19 -24 -52 -23 -77 2 -25 25 -26 54 -2 79 25 28 67 26 91 -5z
m-242 -20 c3 -9 1 -25 -5 -35 -17 -26 -15 -44 9 -90 22 -43 20 -69 -6 -69 -16
0 -43 56 -52 106 -11 64 35 137 54 88z m79 -61 c4 -16 16 -34 26 -41 19 -14
24 -48 9 -70 -14 -23 -44 -9 -56 27 -6 19 -17 37 -24 39 -15 5 -33 50 -25 63
3 5 18 9 34 9 24 0 31 -5 36 -27z"/>
<path d="M1566 1482 c-5 -15 -16 -17 -73 -14 -68 3 -68 3 -105 -36 -25 -27
-36 -46 -33 -61 2 -13 -6 -32 -21 -48 -20 -21 -24 -34 -20 -57 3 -15 6 -41 6
-57 0 -15 7 -34 15 -43 8 -8 15 -21 15 -30 0 -25 40 -39 109 -38 69 1 174 23
197 43 7 6 18 8 24 4 5 -3 19 0 31 9 19 13 20 14 2 18 -20 4 -75 -12 -84 -26
-7 -9 -33 27 -43 59 -5 19 -2 21 27 17 42 -5 93 35 105 81 l8 32 18 -52 c18
-55 10 -87 -24 -97 -10 -2 -8 -4 6 -5 11 0 32 5 48 12 26 11 27 15 21 59 -3
25 -11 62 -18 81 -15 44 -67 107 -87 107 -9 0 -31 13 -50 30 -40 33 -66 38
-74 12z m48 -45 c17 -13 15 -15 -25 -35 -23 -12 -43 -20 -43 -19 -1 1 -7 13
-14 26 -12 20 -12 25 0 32 20 13 62 11 82 -4z m-114 -32 c19 -22 3 -72 -24
-77 -26 -5 -66 22 -66 45 0 40 65 63 90 32z m159 -44 c28 -28 29 -53 4 -84
-26 -34 -61 -29 -84 11 -14 25 -14 31 -1 60 18 37 51 43 81 13z m-228 -110
c-1 -21 5 -55 13 -76 20 -48 21 -45 -14 -45 -27 0 -34 6 -50 43 -24 52 -25
105 -4 136 l16 23 21 -21 c16 -15 21 -31 18 -60z m97 -6 c2 -22 10 -44 18 -48
8 -4 14 -21 14 -37 0 -25 -4 -30 -25 -30 -18 0 -28 7 -35 24 -5 13 -13 27 -19
30 -14 9 -24 62 -16 86 5 16 14 20 33 18 24 -3 27 -8 30 -43z"/>
<path d="M1258 1403 c-18 -15 -35 -30 -38 -33 -6 -7 -73 -50 -128 -84 -79 -49
-19 -65 63 -17 50 29 155 125 155 141 0 21 -21 18 -52 -7z"/>
<path d="M403 1272 c-21 -13 -22 -97 0 -89 7 2 12 22 12 50 0 26 0 47 0 47 0
0 -6 -4 -12 -8z"/>
<path d="M1913 1269 c-12 -4 -29 -24 -37 -42 -8 -19 -19 -38 -25 -41 -17 -11
-13 -25 7 -21 9 1 16 8 14 16 -3 10 0 10 12 -1 15 -11 20 -7 17 13 0 4 4 7 9
7 6 0 10 -5 10 -11 0 -8 4 -8 15 1 11 9 22 9 45 2 27 -10 65 -9 98 3 7 3 11 1
8 -3 -3 -5 22 -8 54 -8 32 0 56 4 54 8 -3 4 1 8 8 9 7 0 0 5 -16 11 -22 8 -30
7 -37 -3 -7 -11 -9 -11 -9 2 0 25 -17 27 -95 14 -38 -7 -72 -8 -73 -3 -2 4 -9
5 -14 2 -6 -4 -9 -3 -5 2 3 5 0 19 -6 30 -9 17 -17 20 -34 13z"/>
<path d="M986 1223 c-13 -14 -5 -42 15 -48 25 -8 26 -7 32 26 4 20 1 25 -18
27 -12 1 -25 -1 -29 -5z"/>
<path d="M2591 1137 c-25 -52 -25 -54 -6 -54 8 0 15 4 15 8 0 5 11 19 25 33
15 15 22 31 19 40 -11 28 -32 17 -53 -27z"/>
<path d="M1066 1137 c8 -23 112 -45 139 -29 28 15 -1 30 -73 37 -62 6 -71 5
-66 -8z"/>
<path d="M1253 1103 c-13 -2 -23 -8 -23 -13 0 -4 -14 -22 -32 -39 -17 -17 -28
-31 -24 -31 5 0 3 -6 -3 -14 -9 -11 -9 -16 0 -22 7 -4 15 -2 17 5 13 40 82 72
113 52 10 -6 24 -11 31 -11 7 0 26 -7 42 -15 21 -11 31 -12 36 -4 5 7 9 5 14
-6 3 -9 10 -14 15 -11 5 3 23 -1 40 -10 17 -9 44 -17 59 -18 15 -1 33 -5 40
-9 6 -5 17 -5 22 -2 6 3 10 1 10 -4 0 -6 3 -10 8 -9 18 4 112 -15 107 -22 -3
-4 19 -10 47 -13 29 -3 65 -7 81 -9 18 -4 27 -1 27 8 0 14 -34 23 -106 29 -25
3 -52 9 -59 15 -7 6 -20 8 -29 4 -9 -3 -16 -2 -16 4 0 9 -116 39 -132 34 -5
-1 -8 3 -8 9 0 5 -4 8 -9 4 -5 -3 -12 -1 -15 4 -3 5 -20 8 -38 6 -18 -1 -38 4
-46 11 -7 8 -27 14 -43 14 -16 0 -29 5 -29 11 0 17 -58 64 -72 58 -2 -1 -13
-4 -25 -6z"/>
<path d="M2595 1031 c-3 -10 -22 -27 -43 -37 -20 -10 -39 -21 -42 -24 -10 -11
-113 -40 -140 -40 -34 0 -60 -9 -60 -21 0 -11 105 -2 130 11 10 5 27 10 37 10
10 0 31 7 47 15 15 8 34 15 41 15 6 0 20 9 30 20 22 24 31 25 39 4 8 -22 -11
-54 -33 -54 -10 0 -24 -7 -31 -15 -7 -8 -16 -15 -20 -15 -4 0 -29 -9 -55 -21
l-47 -21 23 -24 c27 -28 49 -31 49 -6 0 23 19 42 43 42 10 0 32 14 49 30 16
17 38 35 49 40 25 14 24 51 -2 84 -24 30 -55 34 -64 7z"/>
<path d="M1147 973 c-9 -9 -9 -41 1 -45 4 -1 20 -23 37 -48 16 -25 41 -55 55
-67 14 -12 50 -45 80 -73 30 -27 58 -50 63 -50 4 0 20 -12 35 -26 41 -38 242
-154 268 -154 8 0 25 -5 37 -12 12 -7 27 -13 32 -13 15 -2 61 -14 140 -37 58
-17 94 -21 210 -19 121 1 180 5 180 11 0 1 16 4 35 7 19 2 49 10 65 18 50 22
64 25 70 15 11 -18 42 -11 58 12 8 13 34 43 57 68 23 25 48 59 56 76 14 30 14
35 -5 72 -20 39 -73 92 -92 92 -12 0 9 -41 28 -55 21 -15 34 -85 21 -109 -15
-28 -70 -79 -105 -96 -15 -8 -31 -18 -34 -23 -3 -4 -29 -10 -57 -14 -29 -3
-52 -9 -52 -12 0 -10 -87 -15 -245 -15 -179 1 -206 3 -224 18 -11 8 -13 8 -8
-1 5 -7 -4 -6 -23 3 -16 8 -39 16 -50 17 -11 1 -20 5 -20 9 0 4 -20 10 -45 14
-25 3 -45 10 -45 14 0 5 -10 12 -22 16 -13 3 -30 12 -38 18 -8 7 -35 21 -60
31 -25 11 -49 25 -55 31 -5 6 -26 20 -45 30 -19 11 -43 29 -53 42 -10 12 -25
22 -33 22 -8 0 -14 8 -14 17 0 9 -3 13 -7 10 -8 -8 -141 131 -149 155 -3 10
-10 18 -15 18 -5 0 -8 3 -8 8 5 27 -8 41 -24 25z"/>
<path d="M1294 937 c-14 -16 -1 -52 21 -60 9 -4 13 -3 10 3 -11 18 33 31 75
21 22 -5 42 -5 45 -1 6 9 -53 35 -61 27 -3 -3 -21 1 -39 9 -40 17 -37 16 -51
1z"/>
<path d="M1930 894 c0 -10 14 -14 48 -15 26 -1 50 -1 53 -1 4 1 50 2 102 3 75
1 93 4 84 14 -14 13 -89 17 -81 3 3 -4 0 -8 -5 -8 -6 0 -11 5 -11 10 0 6 -7
10 -16 10 -9 0 -12 -5 -8 -12 6 -10 5 -10 -7 -2 -22 18 -159 16 -159 -2z"/>
<path d="M1497 873 c-17 -17 19 -33 74 -33 58 0 81 15 37 24 -54 11 -105 15
-111 9z"/>
<path d="M1350 853 c1 -18 68 -73 90 -73 5 0 10 -4 10 -9 0 -5 14 -14 30 -20
17 -5 30 -7 30 -4 0 3 13 -8 29 -24 16 -17 40 -33 55 -37 14 -3 26 -11 26 -16
0 -14 32 -29 153 -70 90 -31 115 -36 141 -29 46 14 118 20 112 10 -3 -5 20 -8
51 -7 49 1 59 4 69 23 6 13 29 36 51 52 59 43 61 50 22 83 -44 37 -32 63 30
64 23 0 46 5 52 11 19 19 70 -2 129 -52 33 -28 60 -58 60 -68 0 -12 -16 -25
-47 -38 -45 -20 -63 -25 -106 -28 -10 0 -16 -5 -13 -10 3 -5 -19 -11 -49 -13
-39 -3 -61 -11 -75 -26 -21 -22 -14 -37 10 -22 14 9 127 26 143 22 4 -1 7 3 7
8 0 6 11 10 25 10 28 0 115 41 132 62 28 37 24 48 -51 123 l-73 75 -79 -6
c-44 -4 -89 -12 -101 -20 -16 -10 -71 -14 -217 -14 -186 -1 -242 -10 -158 -24
20 -3 99 -6 175 -6 122 0 138 -2 144 -17 4 -10 13 -24 20 -31 7 -7 13 -17 13
-21 0 -18 -105 -111 -124 -111 -6 0 -29 14 -50 30 -22 17 -47 30 -56 30 -9 0
-25 10 -36 23 -11 12 -40 28 -64 36 -50 15 -65 20 -127 46 -40 17 -55 17 -154
-1 -26 -4 -44 -1 -62 11 -15 9 -30 14 -36 11 -14 -9 -41 4 -41 20 0 7 -19 23
-42 34 -47 23 -48 23 -48 13z m344 -112 c3 -5 18 -12 33 -15 16 -4 42 -13 58
-20 17 -8 50 -22 75 -32 81 -32 121 -94 51 -81 -38 7 -125 41 -129 50 -2 4
-10 7 -17 7 -8 0 -34 6 -57 14 -24 8 -55 17 -70 20 -21 5 -28 12 -28 30 0 12
3 26 7 29 10 10 71 8 77 -2z"/>
<path d="M90 572 c-19 -15 -22 -23 -13 -33 6 -8 13 -30 16 -49 4 -29 0 -40
-25 -67 l-30 -31 21 -21 c17 -17 19 -25 11 -41 -9 -17 -8 -20 9 -20 11 0 23 5
26 10 3 6 3 10 -2 10 -14 0 -12 74 3 91 17 19 30 130 17 153 -9 16 -11 16 -33
-2z"/>
<path d="M2490 429 c0 -11 5 -17 10 -14 6 3 10 1 10 -5 0 -6 4 -9 9 -5 5 3 12
1 16 -5 3 -5 1 -10 -5 -10 -6 0 -8 -5 -4 -11 4 -8 9 -7 15 2 5 8 2 20 -8 31
-9 10 -12 18 -7 18 11 0 -17 20 -28 20 -5 0 -8 -9 -8 -21z"/>
<path d="M2638 399 c-3 -10 -17 -14 -70 -18 -34 -2 -18 -18 25 -25 23 -4 51
-9 63 -10 19 -4 20 0 15 27 -7 31 -26 47 -33 26z"/>
<path d="M2690 329 c0 -5 -4 -7 -10 -4 -5 3 -10 4 -10 1 0 -3 18 -17 40 -31
22 -14 40 -32 40 -40 0 -8 9 -19 20 -25 11 -6 31 -33 45 -60 13 -27 29 -51 35
-55 5 -3 10 -32 11 -63 0 -41 3 -51 9 -37 9 20 9 20 10 0 3 -39 19 16 19 66 1
39 -3 49 -24 63 -16 10 -25 26 -25 41 0 14 -5 25 -11 25 -13 0 -39 25 -39 38
0 4 -11 19 -25 32 -13 12 -22 27 -19 31 3 5 -4 9 -15 9 -11 0 -23 5 -26 10 -8
13 -25 13 -25 -1z"/>
<path d="M1915 310 c4 -7 113 -5 121 2 3 3 -24 5 -60 5 -36 0 -63 -3 -61 -7z"/>
<path d="M36 275 c-4 -21 2 -146 8 -152 6 -6 27 148 21 157 -3 5 1 10 7 13 7
3 3 4 -9 4 -13 -1 -24 -9 -27 -22z"/>
</g>
</svg>
